name C:\Users\antoi\Documents\MyRepositories\upper-imu-dc\Results\main_tracking\Case_78\FLX01_orientations_groundFrame.mot
datacolumns 13
datarows 36
range 3.46000000 3.81000000
endheader 
time	radius_imu_[0][0]	radius_imu_[0][1]	radius_imu_[0][2]	radius_imu_[1][0]	radius_imu_[1][1]	radius_imu_[1][2]	radius_imu_[2][0]	radius_imu_[2][1]	radius_imu_[2][2]	radius_imu_x	radius_imu_y	radius_imu_z	
          3.46000000	          0.95272378	         -0.12191428	         -0.27830614	         -0.04638510	         -0.96359279	          0.26331988	         -0.30027624	         -0.23796185	         -0.92369277	         -2.86388598	         -0.28203012	          0.12727226	
          3.47000000	          0.95289861	         -0.12260304	         -0.27740354	         -0.04730073	         -0.96353485	          0.26336900	         -0.29957782	         -0.23784257	         -0.92395024	         -2.86391027	         -0.28109053	          0.12796025	
          3.48000000	          0.95306648	         -0.12331460	         -0.27651004	         -0.04822895	         -0.96346886	          0.26344206	         -0.29889507	         -0.23774200	         -0.92419721	         -2.86390761	         -0.28016066	          0.12867233	
          3.49000000	          0.95322847	         -0.12404219	         -0.27562479	         -0.04916180	         -0.96339402	          0.26354332	         -0.29822576	         -0.23766678	         -0.92443274	         -2.86387347	         -0.27923961	          0.12940136	
          3.50000000	          0.95338562	         -0.12477920	         -0.27474718	         -0.05009160	         -0.96330965	          0.26367661	         -0.29756796	         -0.23762296	         -0.92465596	         -2.86380381	         -0.27832675	          0.13014038	
          3.51000000	          0.95353890	         -0.12551942	         -0.27387669	         -0.05101123	         -0.96321525	          0.26384510	         -0.29691988	         -0.23761578	         -0.92486611	         -2.86369526	         -0.27742154	          0.13088283	
          3.52000000	          0.95368925	         -0.12625706	         -0.27301278	         -0.05191436	         -0.96311053	          0.26405115	         -0.29627980	         -0.23764946	         -0.92506271	         -2.86354534	         -0.27652340	          0.13162265	
          3.53000000	          0.95383753	         -0.12698694	         -0.27215488	         -0.05279551	         -0.96299540	          0.26429621	         -0.29564606	         -0.23772708	         -0.92524550	         -2.86335260	         -0.27563173	          0.13235437	
          3.54000000	          0.95398460	         -0.12770449	         -0.27130231	         -0.05365021	         -0.96287004	          0.26458068	         -0.29501700	         -0.23785047	         -0.92541457	         -2.86311665	         -0.27474583	          0.13307319	
          3.55000000	          0.95413120	         -0.12840587	         -0.27045439	         -0.05447505	         -0.96273481	          0.26490404	         -0.29439109	         -0.23802019	         -0.92557024	         -2.86283817	         -0.27386498	          0.13377508	
          3.56000000	          0.95427797	         -0.12908812	         -0.26961050	         -0.05526773	         -0.96259027	          0.26526486	         -0.29376699	         -0.23823566	         -0.92571309	         -2.86251875	         -0.27298853	          0.13445691	
          3.57000000	          0.95442533	         -0.12974909	         -0.26877027	         -0.05602698	         -0.96243712	          0.26566098	         -0.29314375	         -0.23849519	         -0.92584382	         -2.86216079	         -0.27211609	          0.13511643	
          3.58000000	          0.95457346	         -0.13038759	         -0.26793394	         -0.05675249	         -0.96227618	          0.26608965	         -0.29252123	         -0.23879620	         -0.92596312	         -2.86176727	         -0.27124792	          0.13575241	
          3.59000000	          0.95472202	         -0.13100339	         -0.26710292	         -0.05744473	         -0.96210830	          0.26654780	         -0.29190060	         -0.23913540	         -0.92607143	         -2.86134139	         -0.27038547	          0.13636468	
          3.60000000	          0.95487012	         -0.13159736	         -0.26628027	         -0.05810483	         -0.96193428	          0.26703233	         -0.29128487	         -0.23950903	         -0.92616875	         -2.86088624	         -0.26953190	          0.13695429	
          3.61000000	          0.95501620	         -0.13217151	         -0.26547079	         -0.05873453	         -0.96175485	          0.26754040	         -0.29067904	         -0.23991311	         -0.92625450	         -2.86040453	         -0.26869220	          0.13752355	
          3.62000000	          0.95515811	         -0.13272905	         -0.26468089	         -0.05933620	         -0.96157054	          0.26806959	         -0.29008997	         -0.24034369	         -0.92632754	         -2.85989834	         -0.26787300	          0.13807608	
          3.63000000	          0.95529313	         -0.13327444	         -0.26391846	         -0.05991284	         -0.96138168	          0.26861815	         -0.28952631	         -0.24079697	         -0.92638617	         -2.85936893	         -0.26708245	          0.13861687	
          3.64000000	          0.95541805	         -0.13381342	         -0.26319257	         -0.06046817	         -0.96118832	          0.26918509	         -0.28899820	         -0.24126952	         -0.92642812	         -2.85881662	         -0.26632996	          0.13915229	
          3.65000000	          0.95552913	         -0.13435295	         -0.26251357	         -0.06100653	         -0.96099023	          0.26977025	         -0.28851740	         -0.24175829	         -0.92645056	         -2.85824078	         -0.26562621	          0.13969005	
          3.66000000	          0.95562229	         -0.13490125	         -0.26189253	         -0.06153304	         -0.96078688	          0.27037429	         -0.28809674	         -0.24226065	         -0.92645024	         -2.85763975	         -0.26498266	          0.14023921	
          3.67000000	          0.95569308	         -0.13546787	         -0.26134114	         -0.06205366	         -0.96057744	          0.27099876	         -0.28775003	         -0.24277447	         -0.92642349	         -2.85701094	         -0.26441137	          0.14081022	
          3.68000000	          0.95573701	         -0.13606364	         -0.26087056	         -0.06257552	         -0.96036075	          0.27164597	         -0.28749098	         -0.24329800	         -0.92636657	         -2.85635092	         -0.26392388	          0.14141487	
          3.69000000	          0.95574964	         -0.13670055	         -0.26049105	         -0.06310693	         -0.96013540	          0.27231881	         -0.28733281	         -0.24382981	         -0.92627581	         -2.85565574	         -0.26353078	          0.14206612	
          3.70000000	          0.95572663	         -0.13739162	         -0.26021173	         -0.06365735	         -0.95989974	          0.27302058	         -0.28728791	         -0.24436865	         -0.92614773	         -2.85492102	         -0.26324148	          0.14277801	
          3.71000000	          0.95566348	         -0.13815088	         -0.26004162	         -0.06423708	         -0.95965189	          0.27375509	         -0.28736894	         -0.24491343	         -0.92597868	         -2.85414188	         -0.26306531	          0.14356562	
          3.72000000	          0.95555542	         -0.13899333	         -0.25998980	         -0.06485720	         -0.95938974	          0.27452663	         -0.28758892	         -0.24546319	         -0.92576478	         -2.85331285	         -0.26301164	          0.14444511	
          3.73000000	          0.95539823	         -0.13993457	         -0.26006255	         -0.06553003	         -0.95911101	          0.27533958	         -0.28795838	         -0.24601704	         -0.92550288	         -2.85242856	         -0.26308698	          0.14543318	
          3.74000000	          0.95518846	         -0.14099044	         -0.26026276	         -0.06626910	         -0.95881338	          0.27619797	         -0.28848469	         -0.24657373	         -0.92519078	         -2.85148427	         -0.26329433	          0.14654668	
          3.75000000	          0.95492272	         -0.14217700	         -0.26059221	         -0.06708846	         -0.95849445	          0.27710563	         -0.28917423	         -0.24713173	         -0.92482656	         -2.85047550	         -0.26363556	          0.14780272	
          3.76000000	          0.95459732	         -0.14351044	         -0.26105306	         -0.06800214	         -0.95815172	          0.27806651	         -0.29003389	         -0.24768938	         -0.92440809	         -2.84939755	         -0.26411293	          0.14921864	
          3.77000000	          0.95420907	         -0.14500653	         -0.26164510	         -0.06902441	         -0.95778266	          0.27908423	         -0.29106818	         -0.24824480	         -0.92393389	         -2.84824627	         -0.26472629	          0.15081131	
          3.78000000	          0.95375545	         -0.14668074	         -0.26236482	         -0.07017022	         -0.95738466	          0.28016201	         -0.29227843	         -0.24879585	         -0.92340346	         -2.84701813	         -0.26547206	          0.15259722	
          3.79000000	          0.95323418	         -0.14854850	         -0.26320703	         -0.07145491	         -0.95695493	          0.28130313	         -0.29366442	         -0.24934033	         -0.92281667	         -2.84570966	         -0.26634495	          0.15459289	
          3.80000000	          0.95264281	         -0.15062458	         -0.26416645	         -0.07289324	         -0.95649068	          0.28251047	         -0.29522577	         -0.24987561	         -0.92217348	         -2.84431780	         -0.26733957	          0.15681418	
          3.81000000	          0.95197919	         -0.15292314	         -0.26523601	         -0.07449999	         -0.95598901	          0.28378648	         -0.29696023	         -0.25039874	         -0.92147441	         -2.84284006	         -0.26844870	          0.15927636	
